<mxfile host="Electron" modified="2024-04-03T17:01:20.136Z" agent="Mozilla/5.0 (Macintosh; Intel Mac OS X 10_15_7) AppleWebKit/537.36 (KHTML, like Gecko) draw.io/23.1.5 Chrome/120.0.6099.109 Electron/28.1.0 Safari/537.36" etag="b1i9l64klygNKfKt4qzC" version="23.1.5" type="device">
  <diagram name="Страница — 1" id="Wzgq03RjNT3TnBK5Myau">
    <mxGraphModel dx="127" dy="616" grid="0" gridSize="10" guides="1" tooltips="1" connect="1" arrows="1" fold="1" page="1" pageScale="1" pageWidth="827" pageHeight="1169" math="0" shadow="0">
      <root>
        <mxCell id="0" />
        <mxCell id="1" parent="0" />
        <mxCell id="fx59IMRywZIq7GoPlTEY-2" value="" style="edgeStyle=orthogonalEdgeStyle;rounded=0;orthogonalLoop=1;jettySize=auto;html=1;entryX=0.5;entryY=0;entryDx=0;entryDy=0;exitX=0.5;exitY=1;exitDx=0;exitDy=0;" parent="1" source="fx59IMRywZIq7GoPlTEY-5" target="fx59IMRywZIq7GoPlTEY-7" edge="1">
          <mxGeometry relative="1" as="geometry">
            <Array as="points">
              <mxPoint x="1310" y="420" />
              <mxPoint x="1070" y="420" />
            </Array>
          </mxGeometry>
        </mxCell>
        <mxCell id="fx59IMRywZIq7GoPlTEY-3" value="" style="edgeStyle=orthogonalEdgeStyle;rounded=0;orthogonalLoop=1;jettySize=auto;html=1;entryX=0.5;entryY=0;entryDx=0;entryDy=0;exitX=0.5;exitY=1;exitDx=0;exitDy=0;" parent="1" source="fx59IMRywZIq7GoPlTEY-5" target="qJF1RpnpROZFsc8CyUtP-20" edge="1">
          <mxGeometry relative="1" as="geometry">
            <mxPoint x="1260" y="450" as="targetPoint" />
            <Array as="points">
              <mxPoint x="1310" y="410" />
              <mxPoint x="1310" y="410" />
            </Array>
          </mxGeometry>
        </mxCell>
        <mxCell id="qJF1RpnpROZFsc8CyUtP-29" style="edgeStyle=orthogonalEdgeStyle;rounded=0;orthogonalLoop=1;jettySize=auto;html=1;" edge="1" parent="1" source="fx59IMRywZIq7GoPlTEY-5" target="qJF1RpnpROZFsc8CyUtP-28">
          <mxGeometry relative="1" as="geometry">
            <Array as="points">
              <mxPoint x="1310" y="420" />
              <mxPoint x="1470" y="420" />
            </Array>
          </mxGeometry>
        </mxCell>
        <mxCell id="fx59IMRywZIq7GoPlTEY-5" value="Релиз проекта" style="rounded=1;whiteSpace=wrap;html=1;" parent="1" vertex="1">
          <mxGeometry x="1250" y="330" width="120" height="60" as="geometry" />
        </mxCell>
        <mxCell id="fx59IMRywZIq7GoPlTEY-6" value="" style="edgeStyle=orthogonalEdgeStyle;rounded=0;orthogonalLoop=1;jettySize=auto;html=1;entryX=0.5;entryY=0;entryDx=0;entryDy=0;exitX=0.5;exitY=1;exitDx=0;exitDy=0;" parent="1" source="fx59IMRywZIq7GoPlTEY-7" target="fx59IMRywZIq7GoPlTEY-8" edge="1">
          <mxGeometry relative="1" as="geometry">
            <Array as="points">
              <mxPoint x="1070" y="520" />
              <mxPoint x="960" y="520" />
            </Array>
          </mxGeometry>
        </mxCell>
        <mxCell id="qJF1RpnpROZFsc8CyUtP-10" style="edgeStyle=orthogonalEdgeStyle;rounded=0;orthogonalLoop=1;jettySize=auto;html=1;entryX=0.5;entryY=0;entryDx=0;entryDy=0;exitX=0.5;exitY=1;exitDx=0;exitDy=0;" edge="1" parent="1" source="fx59IMRywZIq7GoPlTEY-7" target="qJF1RpnpROZFsc8CyUtP-11">
          <mxGeometry relative="1" as="geometry">
            <mxPoint x="1150" y="550" as="targetPoint" />
            <Array as="points">
              <mxPoint x="1070" y="520" />
              <mxPoint x="1180" y="520" />
            </Array>
          </mxGeometry>
        </mxCell>
        <mxCell id="fx59IMRywZIq7GoPlTEY-7" value="Увеличение качества составления ИПР" style="whiteSpace=wrap;html=1;rounded=1;" parent="1" vertex="1">
          <mxGeometry x="1010" y="450" width="120" height="60" as="geometry" />
        </mxCell>
        <mxCell id="qJF1RpnpROZFsc8CyUtP-2" value="" style="edgeStyle=orthogonalEdgeStyle;rounded=0;orthogonalLoop=1;jettySize=auto;html=1;entryX=0.5;entryY=0;entryDx=0;entryDy=0;exitX=0.5;exitY=1;exitDx=0;exitDy=0;" edge="1" parent="1" source="fx59IMRywZIq7GoPlTEY-8" target="qJF1RpnpROZFsc8CyUtP-1">
          <mxGeometry relative="1" as="geometry">
            <Array as="points">
              <mxPoint x="960" y="610" />
              <mxPoint x="1027" y="610" />
            </Array>
          </mxGeometry>
        </mxCell>
        <mxCell id="qJF1RpnpROZFsc8CyUtP-6" value="" style="edgeStyle=orthogonalEdgeStyle;rounded=0;orthogonalLoop=1;jettySize=auto;html=1;exitX=0.5;exitY=1;exitDx=0;exitDy=0;" edge="1" parent="1" source="fx59IMRywZIq7GoPlTEY-8" target="qJF1RpnpROZFsc8CyUtP-5">
          <mxGeometry relative="1" as="geometry">
            <Array as="points">
              <mxPoint x="960" y="610" />
              <mxPoint x="890" y="610" />
            </Array>
          </mxGeometry>
        </mxCell>
        <mxCell id="fx59IMRywZIq7GoPlTEY-8" value="Повысить квалификацию персонала" style="whiteSpace=wrap;html=1;rounded=1;" parent="1" vertex="1">
          <mxGeometry x="900" y="540" width="120" height="60" as="geometry" />
        </mxCell>
        <mxCell id="qJF1RpnpROZFsc8CyUtP-4" value="" style="edgeStyle=orthogonalEdgeStyle;rounded=0;orthogonalLoop=1;jettySize=auto;html=1;entryX=0.5;entryY=0;entryDx=0;entryDy=0;" edge="1" parent="1" source="qJF1RpnpROZFsc8CyUtP-1" target="qJF1RpnpROZFsc8CyUtP-3">
          <mxGeometry relative="1" as="geometry">
            <Array as="points">
              <mxPoint x="1027" y="700" />
              <mxPoint x="1027" y="700" />
            </Array>
          </mxGeometry>
        </mxCell>
        <mxCell id="qJF1RpnpROZFsc8CyUtP-1" value="Обучить персонал" style="whiteSpace=wrap;html=1;rounded=1;" vertex="1" parent="1">
          <mxGeometry x="967" y="624" width="120" height="60" as="geometry" />
        </mxCell>
        <mxCell id="qJF1RpnpROZFsc8CyUtP-3" value="Повышение мотивации за счет стимулированных выплат" style="whiteSpace=wrap;html=1;rounded=1;" vertex="1" parent="1">
          <mxGeometry x="967" y="710" width="120" height="60" as="geometry" />
        </mxCell>
        <mxCell id="qJF1RpnpROZFsc8CyUtP-8" value="" style="edgeStyle=orthogonalEdgeStyle;rounded=0;orthogonalLoop=1;jettySize=auto;html=1;" edge="1" parent="1" source="qJF1RpnpROZFsc8CyUtP-5" target="qJF1RpnpROZFsc8CyUtP-7">
          <mxGeometry relative="1" as="geometry" />
        </mxCell>
        <mxCell id="qJF1RpnpROZFsc8CyUtP-5" value="Обучение на специальных курсах" style="whiteSpace=wrap;html=1;rounded=1;" vertex="1" parent="1">
          <mxGeometry x="830" y="624" width="120" height="60" as="geometry" />
        </mxCell>
        <mxCell id="qJF1RpnpROZFsc8CyUtP-7" value="Провести стратегическую сессию" style="whiteSpace=wrap;html=1;rounded=1;" vertex="1" parent="1">
          <mxGeometry x="830" y="710" width="120" height="60" as="geometry" />
        </mxCell>
        <mxCell id="qJF1RpnpROZFsc8CyUtP-17" value="" style="edgeStyle=orthogonalEdgeStyle;rounded=0;orthogonalLoop=1;jettySize=auto;html=1;" edge="1" parent="1" source="qJF1RpnpROZFsc8CyUtP-11" target="qJF1RpnpROZFsc8CyUtP-16">
          <mxGeometry relative="1" as="geometry" />
        </mxCell>
        <mxCell id="qJF1RpnpROZFsc8CyUtP-11" value="Повысить достоверность информации" style="whiteSpace=wrap;html=1;rounded=1;" vertex="1" parent="1">
          <mxGeometry x="1120" y="540" width="120" height="60" as="geometry" />
        </mxCell>
        <mxCell id="qJF1RpnpROZFsc8CyUtP-19" value="" style="edgeStyle=orthogonalEdgeStyle;rounded=0;orthogonalLoop=1;jettySize=auto;html=1;" edge="1" parent="1" source="qJF1RpnpROZFsc8CyUtP-16" target="qJF1RpnpROZFsc8CyUtP-18">
          <mxGeometry relative="1" as="geometry" />
        </mxCell>
        <mxCell id="qJF1RpnpROZFsc8CyUtP-16" value="Обеспечить постоянную актуальность" style="whiteSpace=wrap;html=1;rounded=1;" vertex="1" parent="1">
          <mxGeometry x="1120" y="624" width="120" height="60" as="geometry" />
        </mxCell>
        <mxCell id="qJF1RpnpROZFsc8CyUtP-18" value="Предоставлять мгновенной доступ" style="whiteSpace=wrap;html=1;rounded=1;" vertex="1" parent="1">
          <mxGeometry x="1120" y="710" width="120" height="60" as="geometry" />
        </mxCell>
        <mxCell id="qJF1RpnpROZFsc8CyUtP-23" value="" style="edgeStyle=orthogonalEdgeStyle;rounded=0;orthogonalLoop=1;jettySize=auto;html=1;" edge="1" parent="1" source="qJF1RpnpROZFsc8CyUtP-20" target="qJF1RpnpROZFsc8CyUtP-22">
          <mxGeometry relative="1" as="geometry" />
        </mxCell>
        <mxCell id="qJF1RpnpROZFsc8CyUtP-20" value="Увеличение эффективности процесса" style="whiteSpace=wrap;html=1;rounded=1;" vertex="1" parent="1">
          <mxGeometry x="1250" y="450" width="120" height="60" as="geometry" />
        </mxCell>
        <mxCell id="qJF1RpnpROZFsc8CyUtP-25" value="" style="edgeStyle=orthogonalEdgeStyle;rounded=0;orthogonalLoop=1;jettySize=auto;html=1;" edge="1" parent="1" source="qJF1RpnpROZFsc8CyUtP-22" target="qJF1RpnpROZFsc8CyUtP-24">
          <mxGeometry relative="1" as="geometry" />
        </mxCell>
        <mxCell id="qJF1RpnpROZFsc8CyUtP-22" value="Уменьшить время на проверку расписания" style="whiteSpace=wrap;html=1;rounded=1;" vertex="1" parent="1">
          <mxGeometry x="1250" y="540" width="120" height="60" as="geometry" />
        </mxCell>
        <mxCell id="qJF1RpnpROZFsc8CyUtP-27" value="" style="edgeStyle=orthogonalEdgeStyle;rounded=0;orthogonalLoop=1;jettySize=auto;html=1;" edge="1" parent="1" source="qJF1RpnpROZFsc8CyUtP-24" target="qJF1RpnpROZFsc8CyUtP-26">
          <mxGeometry relative="1" as="geometry" />
        </mxCell>
        <mxCell id="qJF1RpnpROZFsc8CyUtP-24" value="Минимизировать вероятности ошибок" style="whiteSpace=wrap;html=1;rounded=1;" vertex="1" parent="1">
          <mxGeometry x="1250" y="624" width="120" height="60" as="geometry" />
        </mxCell>
        <mxCell id="qJF1RpnpROZFsc8CyUtP-26" value="Обеспечить интеграцию с другими сервисами" style="whiteSpace=wrap;html=1;rounded=1;" vertex="1" parent="1">
          <mxGeometry x="1250" y="710" width="120" height="60" as="geometry" />
        </mxCell>
        <mxCell id="qJF1RpnpROZFsc8CyUtP-31" value="" style="edgeStyle=orthogonalEdgeStyle;rounded=0;orthogonalLoop=1;jettySize=auto;html=1;" edge="1" parent="1" source="qJF1RpnpROZFsc8CyUtP-28" target="qJF1RpnpROZFsc8CyUtP-30">
          <mxGeometry relative="1" as="geometry" />
        </mxCell>
        <mxCell id="qJF1RpnpROZFsc8CyUtP-28" value="Повышение удобства использования" style="whiteSpace=wrap;html=1;rounded=1;" vertex="1" parent="1">
          <mxGeometry x="1410" y="450" width="120" height="60" as="geometry" />
        </mxCell>
        <mxCell id="qJF1RpnpROZFsc8CyUtP-33" value="" style="edgeStyle=orthogonalEdgeStyle;rounded=0;orthogonalLoop=1;jettySize=auto;html=1;" edge="1" parent="1" source="qJF1RpnpROZFsc8CyUtP-30" target="qJF1RpnpROZFsc8CyUtP-32">
          <mxGeometry relative="1" as="geometry" />
        </mxCell>
        <mxCell id="qJF1RpnpROZFsc8CyUtP-30" value="Простой и понятный UI/UX" style="whiteSpace=wrap;html=1;rounded=1;" vertex="1" parent="1">
          <mxGeometry x="1410" y="540" width="120" height="60" as="geometry" />
        </mxCell>
        <mxCell id="qJF1RpnpROZFsc8CyUtP-32" value="Предоставлять отчеты" style="whiteSpace=wrap;html=1;rounded=1;" vertex="1" parent="1">
          <mxGeometry x="1410" y="624" width="120" height="60" as="geometry" />
        </mxCell>
      </root>
    </mxGraphModel>
  </diagram>
</mxfile>
